<svg width="235" height="150" viewBox="0 0 235 150" fill="none" xmlns="http://www.w3.org/2000/svg">
    <g clip-path="url(#clip0_343_7179)">
        <path d="M52.1545 24.7673L8.32031 54.0156L51.4941 118.394L95.3283 89.1455L52.1545 24.7673Z" fill="#F5F5F5"/>
        <path d="M72.6951 86.3255L72.2013 89.389L50.4102 86.2587L50.9039 83.1953L72.6951 86.3255Z" fill="#E1E1E1"/>
        <path d="M61.7248 75.3672L64.8462 75.8179L61.3817 97.2203L58.252 96.7695L61.7248 75.3672Z" fill="#E1E1E1"/>
        <path d="M41.6488 48.1725C41.6488 48.2226 37.2892 51.2026 31.8414 54.8503C26.3936 58.4981 21.9497 61.3946 21.9162 61.3445C21.8827 61.2944 26.2761 58.3144 31.7323 54.6667C37.1884 51.0189 41.6237 48.1224 41.6488 48.1725Z" fill="#E1E1E1"/>
        <path d="M57.7747 44.1331C57.7747 44.1832 50.5026 49.1414 41.4564 55.143C32.4102 61.1447 25.0629 65.9945 25.0294 65.9945C24.9959 65.9945 32.3015 60.9862 41.3477 54.9929C50.3939 48.9995 57.7412 44.0913 57.7747 44.1331Z" fill="#E1E1E1"/>
        <path d="M61.0055 48.9574C61.0055 48.9574 53.7334 53.9657 44.6873 59.959C35.6411 65.9523 28.2934 70.8104 28.2599 70.8104C28.2264 70.8104 35.532 65.8021 44.5782 59.8005C53.6243 53.7988 60.9721 48.9073 61.0055 48.9574Z" fill="#E1E1E1"/>
        <path d="M64.2356 53.7461C64.2356 53.7962 56.9633 58.7544 47.9255 64.7561C38.8877 70.7577 31.5238 75.6075 31.4903 75.6075C31.4569 75.6075 38.7624 70.5992 47.8086 64.5975C56.8548 58.5958 64.2021 53.7461 64.2356 53.7461Z" fill="#E1E1E1"/>
        <path d="M67.4657 58.5901C67.4657 58.6402 60.1938 63.5984 51.156 69.6001C42.1181 75.6017 34.7537 80.4515 34.7286 80.4515C34.7035 80.4515 42.0009 75.4432 51.0387 69.4499C60.0765 63.4566 67.4322 58.5484 67.4657 58.5901Z" fill="#E1E1E1"/>
        <path d="M198.719 67.908L161.91 92.4688L198.17 146.537L234.979 121.976L198.719 67.908Z" fill="#F5F5F5"/>
        <path d="M215.988 119.649L215.569 122.228L197.268 119.599L197.686 117.02L215.988 119.649Z" fill="#E1E1E1"/>
        <path d="M206.766 110.449L209.393 110.825L206.481 128.796L203.854 128.421L206.766 110.449Z" fill="#E1E1E1"/>
        <path d="M189.911 87.606C189.911 87.6561 186.254 90.1686 181.685 93.2237C177.116 96.2788 173.367 98.7162 173.317 98.6661C173.267 98.616 176.965 96.1119 181.543 93.0568C186.12 90.0017 189.878 87.5643 189.911 87.606Z" fill="#E1E1E1"/>
        <path d="M203.485 84.2152C203.485 84.2652 197.384 88.3889 189.794 93.4723C182.204 98.5558 176.02 102.612 175.986 102.562C175.953 102.512 182.087 98.3887 189.677 93.3052C197.267 88.2218 203.418 84.1734 203.485 84.2152Z" fill="#E1E1E1"/>
        <path d="M206.163 88.262C206.163 88.3121 200.062 92.4355 192.472 97.519C184.882 102.602 178.698 106.659 178.664 106.609C178.631 106.559 184.765 102.436 192.363 97.3521C199.962 92.2686 206.129 88.2203 206.163 88.262Z" fill="#E1E1E1"/>
        <path d="M208.875 92.313C208.875 92.363 202.783 96.4867 195.184 101.57C187.586 106.654 181.41 110.702 181.385 110.66C181.36 110.618 187.477 106.487 195.076 101.403C202.674 96.3198 208.85 92.2629 208.875 92.313Z" fill="#E1E1E1"/>
        <path d="M211.594 96.3597C211.594 96.3597 205.494 100.533 197.904 105.617C190.314 110.7 184.129 114.749 184.096 114.707C184.062 114.665 190.196 110.533 197.786 105.45C205.376 100.366 211.561 96.318 211.594 96.3597Z" fill="#E1E1E1"/>
        <path d="M140.415 27.4085L100.25 5.98047L68.6169 64.9755L108.782 86.4035L140.415 27.4085Z" fill="#F5F5F5"/>
        <path d="M102.002 67.8967L99.4492 68.7648L92.9805 50.9267L95.5328 50.0586L102.002 67.8967Z" fill="#E1E1E1"/>
        <path d="M105.902 55.1016L106.831 57.6642L89.0734 63.7243L88.1445 61.17L105.902 55.1016Z" fill="#E1E1E1"/>
        <path d="M118.522 28.7829C118.522 28.8413 114.421 26.7294 109.425 24.0666C104.43 21.4038 100.413 19.2002 100.438 19.1418C100.463 19.0834 104.547 21.1951 109.543 23.8579C114.539 26.5207 118.555 28.7078 118.522 28.7829Z" fill="#E1E1E1"/>
        <path d="M128.169 39.3976C128.169 39.456 121.399 35.9168 113.106 31.5011C104.813 27.0854 98.1268 23.4459 98.1603 23.3874C98.1938 23.329 104.93 26.8684 113.223 31.2841C121.516 35.6998 128.169 39.3392 128.169 39.3976Z" fill="#E1E1E1"/>
        <path d="M125.793 43.8156C125.793 43.874 119.023 40.3346 110.729 35.9189C102.436 31.5032 95.7499 27.8638 95.7833 27.8054C95.8168 27.747 102.553 31.2862 110.846 35.7019C119.139 40.1176 125.826 43.7321 125.793 43.8156Z" fill="#E1E1E1"/>
        <path d="M123.425 48.2294C123.425 48.2879 116.655 44.7487 108.362 40.333C100.069 35.9173 93.3827 32.2779 93.4161 32.2195C93.4496 32.161 100.186 35.7002 108.479 40.1159C116.772 44.5316 123.458 48.171 123.425 48.2294Z" fill="#E1E1E1"/>
        <path d="M121.056 52.6474C121.056 52.7058 114.286 49.1666 105.993 44.7509C97.6997 40.3352 91.0135 36.6959 91.047 36.6374C91.0805 36.579 97.817 40.1182 106.11 44.5339C114.403 48.9496 121.089 52.589 121.056 52.6474Z" fill="#E1E1E1"/>
        <path d="M225.544 148.741C225.544 148.799 175.049 148.841 112.78 148.841C50.5114 148.841 0 148.799 0 148.741C0 148.682 50.4863 148.641 112.78 148.641C175.074 148.641 225.544 148.682 225.544 148.741Z" fill="#1A2E35"/>
        <path d="M12.4846 124.332C13.145 124.381 13.7888 124.561 14.3781 124.862C14.9675 125.163 15.4903 125.579 15.9158 126.085C16.7577 127.109 17.356 128.311 17.665 129.599C18.3261 132.103 17.916 134.975 17.2131 137.42C14.5352 136.469 12.8866 133.622 12.1418 132.128C10.9619 129.766 10.2754 124.783 12.4846 124.332Z" fill="#39E070"/>
        <path d="M21.055 140.411C20.6568 139.794 20.4288 139.083 20.3935 138.351C20.3582 137.618 20.5168 136.889 20.854 136.237C21.2054 135.589 21.6826 135.017 22.2572 134.554C22.8318 134.092 23.4923 133.747 24.2013 133.541C24.5175 133.412 24.8581 133.354 25.1992 133.37C25.5402 133.386 25.8738 133.475 26.1766 133.633C26.4294 133.825 26.6267 134.081 26.7486 134.374C26.8706 134.667 26.913 134.987 26.8712 135.302C26.7699 135.933 26.5041 136.526 26.101 137.022C24.7955 138.783 23.2141 140.244 21.0383 140.419" fill="#39E070"/>
        <path d="M21.3555 148.649C21.3009 148.48 21.262 148.307 21.2386 148.131C21.1633 147.772 21.0712 147.296 20.9624 146.729C20.6123 145.182 20.5133 143.59 20.6694 142.013C20.8552 140.426 21.4585 138.917 22.4183 137.639C22.7168 137.26 23.0597 136.918 23.4394 136.62C23.5397 136.538 23.6459 136.462 23.7573 136.395L23.8745 136.328C23.3747 136.741 22.9225 137.209 22.5269 137.722C21.6089 138.995 21.0327 140.48 20.8533 142.038C20.7 143.596 20.7792 145.169 21.0878 146.704C21.1882 147.305 21.2634 147.789 21.3052 148.123C21.334 148.297 21.3509 148.472 21.3555 148.649Z" fill="#1A2E35"/>
        <path d="M13.3477 128.09C13.3477 128.09 13.3894 128.157 13.4563 128.29C13.5233 128.424 13.6154 128.641 13.7326 128.883C13.9669 129.4 14.3017 130.151 14.7034 131.086C15.5403 132.956 16.5862 135.544 17.7075 138.44C18.8289 141.337 19.7911 143.966 20.4522 145.886C20.7869 146.846 21.0548 147.631 21.2306 148.173C21.3059 148.424 21.3728 148.632 21.423 148.791C21.4507 148.864 21.4702 148.939 21.4815 149.016C21.446 148.949 21.4154 148.879 21.3895 148.808L21.1636 148.19C20.9544 147.639 20.6782 146.871 20.3267 145.936C19.6238 144.025 18.653 141.395 17.5233 138.507C16.3935 135.619 15.3477 133.015 14.5694 131.137L13.6574 128.916L13.4147 128.307C13.3819 128.238 13.3593 128.165 13.3477 128.09Z" fill="#1A2E35"/>
        <path d="M18.1838 143.198C17.3793 141.862 16.2674 140.737 14.9402 139.915C13.613 139.094 12.109 138.599 10.5521 138.473C9.76552 138.415 8.81153 138.548 8.46006 139.258C8.34883 139.638 8.35191 140.043 8.46946 140.421C8.58701 140.8 8.81387 141.135 9.12119 141.386C10.2651 142.583 11.7393 143.414 13.3573 143.774C14.9752 144.133 16.664 144.005 18.2091 143.406" fill="#39E070"/>
        <path d="M11.7578 140.558C11.9218 140.538 12.0875 140.538 12.2514 140.558C12.4452 140.567 12.6381 140.589 12.8288 140.625C13.0547 140.625 13.3143 140.692 13.5904 140.767C13.8964 140.832 14.1983 140.916 14.4943 141.017C14.8123 141.109 15.1468 141.251 15.4982 141.393C16.2441 141.734 16.9511 142.153 17.6071 142.645C18.2547 143.152 18.8418 143.732 19.3563 144.373C19.5831 144.653 19.7898 144.949 19.9754 145.257C20.1464 145.526 20.2999 145.805 20.4355 146.092C20.5544 146.32 20.6609 146.554 20.7538 146.793C20.8288 146.973 20.8931 147.157 20.9462 147.344C21.0071 147.497 21.0491 147.657 21.0717 147.82C21.0717 147.82 20.8458 147.152 20.3186 146.151C20.1847 145.909 20.034 145.633 19.8499 145.358C19.6658 145.082 19.4564 144.798 19.2305 144.523C18.2068 143.264 16.9033 142.261 15.4231 141.593C15.1039 141.445 14.7771 141.314 14.444 141.201C14.1344 141.084 13.8331 141.009 13.5569 140.934C12.4607 140.658 11.7578 140.625 11.7578 140.558Z" fill="#1A2E35"/>
        <path d="M189.09 18.4464C187.944 18.7135 187.417 20.0324 187.274 21.201C187.132 22.3696 187.316 23.6133 186.822 24.6817C186.27 25.8837 184.94 26.7686 184.898 28.0875C184.898 28.9222 185.35 29.6568 185.324 30.4582C185.324 31.7854 183.936 32.787 183.869 34.1058C183.818 35.0658 184.454 35.9757 184.295 36.9189C184.044 37.615 183.734 38.288 183.366 38.9305C182.881 40.3329 183.843 41.8688 185.099 42.6617C185.801 43.1024 186.592 43.3845 187.416 43.4885C188.239 43.5925 189.076 43.5158 189.866 43.2637C190.657 43.0117 191.383 42.5904 191.993 42.0294C192.603 41.4683 193.084 40.7812 193.4 40.0157C194.095 38.3463 193.944 36.4348 193.793 34.6234C193.325 28.9751 192.976 23.3128 192.747 17.6367" fill="#1A2E35"/>
        <path d="M185.76 38.396C185.99 38.2422 186.171 38.0246 186.279 37.7699C186.398 37.4706 186.444 37.1471 186.413 36.8266C186.374 36.3931 186.278 35.9666 186.128 35.5578C185.942 35.0482 185.873 34.5033 185.927 33.9635C186.097 33.3624 186.416 32.8137 186.856 32.3691C187.069 32.1164 187.247 31.8355 187.383 31.5343C187.52 31.2412 187.541 30.9074 187.442 30.5996C187.241 29.9652 186.605 29.4978 186.329 28.7632C186.198 28.3989 186.177 28.0038 186.271 27.6279C186.353 27.2714 186.479 26.9265 186.647 26.6012C186.973 26.0225 187.235 25.4094 187.425 24.7732C187.693 23.5378 187.568 22.3524 187.752 21.3842C187.862 20.6074 188.206 19.8825 188.739 19.3057C188.896 19.1618 189.07 19.0385 189.258 18.9385C189.325 18.906 189.395 18.8807 189.467 18.8633C189.223 19.0004 188.998 19.1689 188.798 19.3642C188.299 19.9411 187.985 20.6531 187.894 21.4092C187.829 21.9328 187.793 22.4593 187.785 22.9868C187.787 23.6008 187.725 24.2135 187.601 24.815C187.417 25.4695 187.156 26.1 186.823 26.6931C186.639 26.9878 186.518 27.3167 186.466 27.6597C186.414 28.0027 186.433 28.3525 186.521 28.688C186.772 29.3558 187.4 29.8232 187.634 30.5411C187.745 30.894 187.718 31.2755 187.559 31.6095C187.413 31.911 187.227 32.1917 187.007 32.4443C186.58 32.8598 186.266 33.3769 186.095 33.9468C186.037 34.4654 186.097 34.9905 186.271 35.4828C186.411 35.9014 186.499 36.336 186.53 36.7764C186.546 37.1137 186.485 37.4504 186.354 37.7616C186.272 37.9617 186.132 38.133 185.952 38.2539C185.898 38.3136 185.833 38.362 185.76 38.396Z" fill="#375A64"/>
        <path d="M182.681 47.6367L179.158 57.7704L164.446 58.5633L161.994 64.0058L177.35 65.5499C178.076 65.85 178.855 65.9999 179.64 65.9903C180.425 65.9807 181.2 65.8118 181.918 65.494C182.636 65.1763 183.281 64.7161 183.815 64.1417C184.349 63.5673 184.76 62.8906 185.024 62.1527L189.124 50.7502L182.681 47.6367Z" fill="#C78976"/>
        <path d="M213.101 143.229C213.101 143.229 202.322 109.089 202.096 107.979C201.87 106.869 206.004 82.4114 206.523 76.0508L191.962 76.5935V76.7019L185.77 77.0441L191.318 146.869H198.012L197.351 123.705C200.293 131.326 203.645 138.782 207.393 146.043L213.101 143.229Z" fill="#C78976"/>
        <path d="M197.627 132.005C197.627 131.797 197.543 124.242 197.543 124.242C197.459 124.693 194.974 117.69 195.032 117.264C195.066 117.047 197.627 132.005 197.627 132.005Z" fill="#B66955"/>
        <path d="M194.749 113.949C194.723 114.087 194.709 114.227 194.707 114.367C194.686 114.753 194.686 115.14 194.707 115.527C194.707 115.769 194.707 116.036 194.774 116.361C194.841 116.687 194.849 116.954 194.916 117.271C195.054 117.959 195.238 118.637 195.468 119.3C195.954 120.71 196.49 121.946 196.874 122.847L197.335 123.899C197.282 123.909 197.234 123.939 197.202 123.982C197.17 124.026 197.155 124.079 197.16 124.133C197.165 124.187 197.19 124.236 197.23 124.273C197.27 124.309 197.323 124.329 197.377 124.329C197.431 124.329 197.483 124.309 197.523 124.273C197.563 124.236 197.588 124.187 197.593 124.133C197.598 124.079 197.583 124.026 197.551 123.982C197.519 123.939 197.471 123.909 197.418 123.899C197.326 123.649 197.192 123.273 197.017 122.822C196.674 121.912 196.18 120.66 195.678 119.266C195.454 118.609 195.267 117.941 195.117 117.263C195.05 116.946 195 116.645 194.958 116.37C194.916 116.094 194.883 115.827 194.866 115.585C194.824 115.101 194.799 114.709 194.791 114.433C194.804 114.271 194.79 114.107 194.749 113.949Z" fill="#B66955"/>
        <path d="M191.192 147.235V146.609L198.062 146.309V148.896H197.635C195.753 149.005 188.054 149.322 186.757 148.946C185.393 148.529 191.192 147.235 191.192 147.235Z" fill="#25B9F6"/>
        <path d="M198.162 148.724H198.045H197.71L196.472 148.782C195.417 148.824 193.961 148.857 192.371 148.866C190.781 148.874 189.316 148.866 188.27 148.815L187.032 148.766H188.27C189.325 148.766 190.781 148.766 192.371 148.766C193.961 148.766 195.417 148.765 196.463 148.707H197.71H198.045C198.12 148.715 198.162 148.715 198.162 148.724Z" fill="#1A2E35"/>
        <path d="M188.966 148.908C188.909 148.703 188.83 148.504 188.732 148.315C188.612 148.14 188.468 147.983 188.305 147.848C188.518 147.921 188.695 148.074 188.799 148.273C188.927 148.459 188.986 148.683 188.966 148.908Z" fill="#1A2E35"/>
        <path d="M190.975 147.912C190.975 147.912 190.858 147.811 190.757 147.653C190.686 147.563 190.637 147.457 190.615 147.344C190.706 147.417 190.779 147.508 190.833 147.611C190.933 147.761 191 147.903 190.975 147.912Z" fill="#1A2E35"/>
        <path d="M191.527 147.621C191.527 147.621 191.409 147.562 191.284 147.462C191.158 147.362 191.083 147.253 191.1 147.237C191.117 147.22 191.226 147.295 191.343 147.395C191.46 147.495 191.543 147.604 191.527 147.621Z" fill="#1A2E35"/>
        <path d="M191.878 146.977C191.759 147.001 191.637 147.001 191.518 146.977C191.4 147.006 191.276 147.006 191.158 146.977C191.158 146.977 191.317 146.977 191.518 146.927C191.719 146.877 191.878 146.952 191.878 146.977Z" fill="#1A2E35"/>
        <path d="M191.996 146.52C191.878 146.601 191.737 146.643 191.594 146.637C191.455 146.665 191.311 146.648 191.184 146.586C191.32 146.576 191.457 146.576 191.594 146.586C191.726 146.555 191.86 146.532 191.996 146.52Z" fill="#1A2E35"/>
        <path d="M190.74 147.32C190.596 147.346 190.449 147.346 190.305 147.32C190.146 147.298 189.99 147.264 189.836 147.219C189.745 147.189 189.655 147.153 189.569 147.111C189.517 147.077 189.479 147.027 189.46 146.969C189.454 146.936 189.457 146.903 189.469 146.872C189.481 146.841 189.501 146.814 189.526 146.794C189.695 146.717 189.884 146.699 190.065 146.741C190.245 146.783 190.406 146.884 190.522 147.027C190.59 147.113 190.639 147.213 190.665 147.32C190.669 147.358 190.669 147.397 190.665 147.436C190.615 147.304 190.544 147.18 190.456 147.069C190.361 146.953 190.232 146.868 190.087 146.827C190.004 146.792 189.914 146.774 189.824 146.774C189.733 146.774 189.643 146.792 189.56 146.827C189.493 146.877 189.518 146.96 189.56 147.011C189.642 147.049 189.726 147.083 189.811 147.111C189.959 147.161 190.11 147.2 190.263 147.228C190.573 147.303 190.74 147.303 190.74 147.32Z" fill="#1A2E35"/>
        <path d="M190.631 147.347C190.575 147.255 190.557 147.144 190.581 147.039C190.592 146.925 190.633 146.815 190.698 146.721C190.733 146.656 190.784 146.6 190.848 146.561C190.911 146.521 190.983 146.499 191.058 146.496C191.102 146.506 191.141 146.532 191.167 146.569C191.193 146.606 191.205 146.651 191.2 146.696C191.189 146.768 191.163 146.836 191.125 146.897C191.065 146.991 190.995 147.078 190.915 147.155C190.781 147.297 190.673 147.348 190.664 147.339C190.656 147.331 190.757 147.256 190.874 147.122C190.943 147.039 191.004 146.949 191.058 146.855C191.116 146.763 191.158 146.596 191.058 146.579C190.957 146.563 190.832 146.68 190.765 146.763C190.703 146.846 190.663 146.944 190.648 147.047C190.635 147.147 190.629 147.247 190.631 147.347Z" fill="#1A2E35"/>
        <path d="M198.02 146.853C198.02 146.853 197.819 146.853 197.518 146.853C197.115 146.899 196.733 147.055 196.413 147.304C196.1 147.561 195.863 147.899 195.727 148.28C195.627 148.573 195.618 148.765 195.602 148.765C195.596 148.72 195.596 148.675 195.602 148.631C195.612 148.506 195.637 148.383 195.677 148.264C195.795 147.862 196.035 147.506 196.363 147.245C196.691 146.982 197.09 146.825 197.509 146.795C197.634 146.777 197.761 146.777 197.886 146.795L198.02 146.853Z" fill="#1A2E35"/>
        <path d="M194.731 148.181C194.404 148.252 194.069 148.283 193.735 148.273C193.398 148.288 193.06 148.26 192.73 148.19C192.73 148.19 193.183 148.19 193.735 148.19C194.287 148.19 194.731 148.156 194.731 148.181Z" fill="#1A2E35"/>
        <path d="M196.072 148.163C196.072 148.163 196.072 148.255 195.988 148.355C195.904 148.455 195.921 148.556 195.896 148.547C195.871 148.539 195.896 148.447 195.896 148.322C195.896 148.197 196.055 148.147 196.072 148.163Z" fill="#1A2E35"/>
        <path d="M196.572 147.538C196.572 147.538 196.572 147.622 196.471 147.697C196.371 147.772 196.329 147.814 196.312 147.797C196.296 147.78 196.312 147.705 196.412 147.638C196.513 147.572 196.555 147.522 196.572 147.538Z" fill="#1A2E35"/>
        <path d="M197.292 147.239C197.292 147.239 197.2 147.239 197.1 147.297C197 147.356 196.924 147.389 196.908 147.372C196.891 147.356 196.907 147.264 197.066 147.222C197.225 147.18 197.301 147.239 197.292 147.239Z" fill="#1A2E35"/>
        <path d="M197.803 147.113C197.803 147.113 197.803 147.162 197.719 147.188C197.635 147.213 197.611 147.188 197.602 147.188C197.594 147.188 197.602 147.138 197.686 147.113C197.769 147.087 197.794 147.087 197.803 147.113Z" fill="#1A2E35"/>
        <path d="M207.268 146.613L207.008 146.037L213.151 142.965L214.23 145.319L213.854 145.519C212.18 146.354 205.284 149.826 203.979 149.993C202.523 150.185 207.268 146.613 207.268 146.613Z" fill="#25B9F6"/>
        <path d="M214.256 145.133L214.155 145.191L213.854 145.35L212.741 145.909C211.804 146.376 210.499 147.003 209.042 147.662C207.586 148.321 206.256 148.889 205.285 149.29L204.13 149.757L203.812 149.874L203.703 149.916C203.703 149.916 203.703 149.916 203.812 149.857L204.122 149.724L205.26 149.24C206.222 148.822 207.553 148.246 209.009 147.57C210.465 146.894 211.77 146.293 212.716 145.842L213.837 145.308L214.147 145.158L214.256 145.133Z" fill="#1A2E35"/>
        <path d="M205.995 149.091C205.854 148.931 205.7 148.783 205.535 148.648C205.354 148.541 205.159 148.457 204.957 148.398C205.182 148.379 205.406 148.444 205.585 148.582C205.775 148.7 205.92 148.879 205.995 149.091Z" fill="#1A2E35"/>
        <path d="M207.368 147.336C207.255 147.31 207.149 147.258 207.058 147.186C206.958 147.132 206.87 147.058 206.799 146.969C206.799 146.969 206.95 147.011 207.109 147.119C207.268 147.228 207.376 147.311 207.368 147.336Z" fill="#1A2E35"/>
        <path d="M207.744 146.845C207.646 146.853 207.548 146.836 207.459 146.795C207.308 146.745 207.191 146.695 207.2 146.67C207.208 146.645 207.333 146.67 207.484 146.72C207.635 146.77 207.752 146.82 207.744 146.845Z" fill="#1A2E35"/>
        <path d="M207.803 146.109C207.803 146.109 207.669 146.218 207.494 146.301C207.318 146.385 207.159 146.435 207.15 146.41C207.242 146.331 207.347 146.268 207.46 146.226C207.565 146.163 207.682 146.123 207.803 146.109Z" fill="#1A2E35"/>
        <path d="M207.719 145.652C207.719 145.652 207.611 145.811 207.41 145.919C207.209 146.028 207.016 146.061 207.008 146.036C207 146.011 207.176 145.953 207.368 145.844C207.48 145.771 207.597 145.707 207.719 145.652Z" fill="#1A2E35"/>
        <path d="M206.908 146.888C206.785 146.971 206.65 147.034 206.506 147.072C206.353 147.119 206.196 147.153 206.038 147.172C205.945 147.172 205.854 147.172 205.753 147.172C205.722 147.17 205.692 147.162 205.664 147.147C205.637 147.133 205.613 147.113 205.594 147.088C205.576 147.061 205.566 147.029 205.566 146.997C205.566 146.964 205.576 146.932 205.594 146.905C205.716 146.765 205.88 146.67 206.062 146.633C206.244 146.597 206.433 146.622 206.599 146.704C206.693 146.759 206.778 146.83 206.849 146.913C206.874 146.947 206.893 146.983 206.908 147.022C206.81 146.915 206.694 146.827 206.565 146.763C206.43 146.696 206.278 146.673 206.13 146.696C205.948 146.712 205.779 146.799 205.661 146.938C205.619 147.013 205.661 147.08 205.77 147.088C205.859 147.101 205.949 147.101 206.038 147.088C206.193 147.076 206.347 147.05 206.498 147.013C206.749 146.946 206.9 146.88 206.908 146.888Z" fill="#1A2E35"/>
        <path d="M206.833 146.951C206.833 146.951 206.724 146.885 206.657 146.701C206.635 146.588 206.635 146.472 206.657 146.359C206.664 146.284 206.69 146.211 206.732 146.149C206.775 146.086 206.833 146.035 206.9 146C207 146 207.226 146.167 207.243 146.242C207.26 146.317 207.126 146.242 207.117 146.342C207.108 146.454 207.083 146.563 207.042 146.668C207.011 146.768 206.956 146.859 206.883 146.935C206.883 146.935 206.933 146.826 206.984 146.651C207.013 146.548 207.033 146.441 207.042 146.334C207.042 146.225 207.042 146.059 206.925 146.084C206.808 146.109 206.758 146.267 206.732 146.376C206.707 146.477 206.707 146.583 206.732 146.685C206.754 146.778 206.788 146.867 206.833 146.951Z" fill="#1A2E35"/>
        <path d="M213.352 143.497C213.197 143.56 213.046 143.632 212.9 143.714C212.552 143.914 212.264 144.202 212.063 144.548C211.881 144.91 211.803 145.314 211.837 145.717C211.837 146.026 211.938 146.209 211.921 146.209C211.904 146.209 211.921 146.21 211.862 146.084C211.827 145.967 211.799 145.847 211.779 145.725C211.726 145.31 211.798 144.889 211.988 144.515C212.175 144.145 212.466 143.838 212.825 143.63C212.934 143.572 213.049 143.524 213.167 143.488C213.301 143.497 213.352 143.488 213.352 143.497Z" fill="#1A2E35"/>
        <path d="M210.9 146.045C210.642 146.242 210.361 146.408 210.063 146.537C209.763 146.687 209.445 146.8 209.117 146.871C209.117 146.871 209.527 146.688 210.029 146.462C210.531 146.237 210.883 146.02 210.9 146.045Z" fill="#1A2E35"/>
        <path d="M212.112 145.485C212.112 145.485 212.112 145.585 212.112 145.694C212.112 145.802 212.112 145.902 212.112 145.911C212.112 145.919 212.037 145.827 212.037 145.694C212.037 145.56 212.096 145.477 212.112 145.485Z" fill="#1A2E35"/>
        <path d="M212.313 144.734C212.313 144.734 212.313 144.826 212.313 144.926C212.313 145.027 212.229 145.085 212.213 145.077C212.196 145.068 212.213 144.985 212.213 144.893C212.213 144.801 212.288 144.734 212.313 144.734Z" fill="#1A2E35"/>
        <path d="M212.85 144.147C212.85 144.147 212.774 144.205 212.699 144.281C212.623 144.356 212.573 144.431 212.557 144.422C212.54 144.414 212.557 144.306 212.64 144.214C212.724 144.122 212.85 144.122 212.85 144.147Z" fill="#1A2E35"/>
        <path d="M213.267 143.814C213.267 143.814 213.267 143.872 213.217 143.914C213.166 143.956 213.125 143.981 213.108 143.964C213.091 143.948 213.108 143.906 213.158 143.864C213.208 143.822 213.25 143.797 213.267 143.814Z" fill="#1A2E35"/>
        <path d="M205.578 64.5003L204.44 50.5855L210.298 50.6941C210.298 50.6941 210.574 48.6406 209.703 44.1415C209.46 42.9423 208.93 41.8196 208.157 40.869C207.385 39.9184 206.394 39.1682 205.268 38.6823L205.092 38.6322C203.389 37.8707 201.571 37.3995 199.712 37.2383L192.506 37.3135C192.506 37.3135 187 36.6289 183.954 40.5438C182.782 42.0546 179.15 52.3719 179.15 52.3719L187.795 56.5456L186.958 50.8276C186.958 50.8276 187.117 55.0013 187.653 56.2868C187.946 57.0213 188.807 59.2916 188.807 59.2916L188.69 66.1616L205.578 64.5003Z" fill="#FEE75C"/>
        <path d="M201.602 48.5645L200.531 53.1054H210.623L209.962 45.4844L201.602 48.5645Z" fill="#FEE75C"/>
        <path d="M210.623 53.1126C210.184 53.0271 209.739 52.9825 209.292 52.9792C208.455 52.9291 207.317 52.8873 206.053 52.8956C204.79 52.9039 203.644 52.9539 202.815 53.0207C202.367 53.0321 201.921 53.0882 201.484 53.1878C201.93 53.2218 202.378 53.2218 202.823 53.1878C203.66 53.1878 204.79 53.1293 206.053 53.1293C207.317 53.1293 208.455 53.1293 209.284 53.1293C209.73 53.1549 210.177 53.1493 210.623 53.1126Z" fill="#1A2E35"/>
        <path d="M201.166 45.4492C201.132 45.8352 201.132 46.2234 201.166 46.6094C201.166 47.3189 201.166 48.2789 201.242 49.3891C201.317 50.4993 201.334 51.4676 201.384 52.1771C201.388 52.5643 201.43 52.95 201.51 53.329C201.549 52.9432 201.549 52.5546 201.51 52.1688C201.51 51.4593 201.509 50.4993 201.434 49.3807C201.359 48.2622 201.342 47.3106 201.292 46.601C201.288 46.2139 201.246 45.8282 201.166 45.4492Z" fill="#1A2E35"/>
        <g opacity="0.3">
            <path d="M191.986 49.3906C191.986 49.3906 194.229 65.9765 200.531 65.5424C200.531 65.5424 203.376 65.5009 204.288 63.6227V62.8797L191.986 49.3906Z" fill="black"/>
        </g>
        <g opacity="0.3">
            <path d="M201.166 46.4258L199.961 54.556L200.739 55.9834L202.028 53.1954L201.484 53.1787L201.166 46.4258Z" fill="black"/>
        </g>
        <path d="M188.833 59.2397C188.756 59.1209 188.696 58.9916 188.656 58.8558C188.564 58.597 188.431 58.2297 188.28 57.7622C187.886 56.5584 187.564 55.3318 187.318 54.0893C187.067 52.8419 186.904 51.5783 186.832 50.308C186.832 49.8239 186.832 49.4316 186.832 49.1562C186.811 49.0151 186.811 48.8716 186.832 48.7305C186.832 48.7305 186.891 49.3316 186.975 50.2999C187.084 51.5575 187.26 52.8085 187.502 54.0478C187.795 55.5002 188.146 56.7939 188.406 57.7288C188.531 58.1545 188.64 58.5636 188.723 58.8307C188.772 58.9635 188.809 59.1004 188.833 59.2397Z" fill="#1A2E35"/>
        <path d="M191.376 64.0132C191.2 63.7643 191.083 63.479 191.033 63.1785C190.92 62.9148 190.866 62.6302 190.874 62.3438C190.932 62.3438 191.083 62.686 191.225 63.1785C191.367 63.671 191.434 63.9965 191.376 64.0132Z" fill="#1A2E35"/>
        <path d="M192.246 63.9485C192.071 63.5701 191.993 63.1541 192.02 62.7382C191.978 62.3222 192.044 61.9024 192.213 61.5195C192.245 61.9223 192.245 62.327 192.213 62.7298C192.256 63.1346 192.267 63.542 192.246 63.9485Z" fill="#1A2E35"/>
        <path d="M187.978 56.6843C187.978 56.7344 185.945 55.7828 183.484 54.5557C181.024 53.3287 179.057 52.302 179.082 52.2519C179.107 52.2018 181.116 53.1534 183.576 54.3721C186.036 55.5908 188.003 56.6342 187.978 56.6843Z" fill="#1A2E35"/>
        <path d="M191.526 38.6313C191.576 36.653 191.584 34.5831 191.584 34.5831C191.584 34.5831 189.074 34.0905 188.605 30.7683C188.187 27.5964 189.367 20.1506 189.367 20.1506C191.135 19.5024 193.064 19.4303 194.876 19.9448C196.688 20.4593 198.29 21.5337 199.451 23.0137L198.823 39.0155C198.792 39.4703 198.669 39.914 198.464 40.3212C198.258 40.7283 197.973 41.0905 197.626 41.3866C197.278 41.6827 196.875 41.9067 196.44 42.0456C196.004 42.1846 195.546 42.2355 195.091 42.1956C194.149 42.1784 193.251 41.7972 192.586 41.1323C191.921 40.4673 191.541 39.5705 191.526 38.6313Z" fill="#C78976"/>
        <path d="M189.174 26.1005C189.17 26.2098 189.208 26.3166 189.282 26.3978C189.356 26.479 189.458 26.5281 189.568 26.5346C189.622 26.5403 189.676 26.5355 189.728 26.5201C189.78 26.5047 189.828 26.4793 189.87 26.4451C189.912 26.411 189.947 26.3689 189.973 26.3212C189.998 26.2735 190.014 26.2212 190.02 26.1673C190.024 26.0558 189.984 25.9469 189.909 25.8641C189.834 25.7813 189.73 25.7314 189.618 25.7249C189.564 25.7192 189.509 25.7244 189.457 25.7404C189.405 25.7564 189.357 25.7829 189.315 25.818C189.274 25.8532 189.24 25.8962 189.216 25.9448C189.192 25.9934 189.177 26.0463 189.174 26.1005Z" fill="#1A2E35"/>
        <path d="M189.016 25.5408C189.066 25.5909 189.393 25.3656 189.853 25.3823C190.313 25.3989 190.639 25.6243 190.69 25.5742C190.74 25.5241 190.689 25.449 190.522 25.3405C190.325 25.2052 190.092 25.1328 189.853 25.1328C189.614 25.1328 189.38 25.2052 189.183 25.3405C189.041 25.4156 188.991 25.5158 189.016 25.5408Z" fill="#1A2E35"/>
        <path d="M193.82 26.3862C193.818 26.4971 193.858 26.6049 193.933 26.6872C194.008 26.7694 194.111 26.8201 194.222 26.8286C194.332 26.8379 194.441 26.8037 194.525 26.7334C194.61 26.6631 194.663 26.5623 194.674 26.453C194.676 26.3429 194.636 26.236 194.561 26.1551C194.486 26.0741 194.383 26.0254 194.272 26.0189C194.218 26.012 194.163 26.016 194.111 26.0309C194.058 26.0459 194.009 26.0714 193.967 26.1057C193.925 26.1401 193.89 26.1826 193.865 26.2309C193.839 26.2791 193.825 26.3319 193.82 26.3862Z" fill="#1A2E35"/>
        <path d="M193.793 25.8278C193.844 25.8862 194.17 25.6609 194.63 25.6692C195.09 25.6776 195.417 25.9196 195.467 25.8695C195.517 25.8195 195.467 25.7443 195.3 25.6274C195.104 25.4887 194.87 25.4141 194.63 25.4141C194.39 25.4141 194.156 25.4887 193.961 25.6274C193.819 25.7026 193.768 25.8027 193.793 25.8278Z" fill="#1A2E35"/>
        <path d="M192.038 29.173C191.798 29.0955 191.552 29.045 191.301 29.0226C191.184 29.0226 191.075 28.981 191.058 28.9059C191.05 28.7833 191.08 28.6611 191.142 28.5553C191.259 28.2799 191.385 27.9877 191.51 27.6788C191.853 26.9354 192.133 26.1648 192.347 25.375C191.949 26.0903 191.608 26.8354 191.327 27.6036L190.975 28.4885C190.898 28.6285 190.872 28.7905 190.9 28.9476C190.917 28.9891 190.943 29.0262 190.976 29.0565C191.01 29.0867 191.049 29.1094 191.092 29.1229C191.156 29.1303 191.221 29.1303 191.284 29.1229C191.532 29.1757 191.785 29.1926 192.038 29.173Z" fill="#1A2E35"/>
        <path d="M191.584 34.5489C193.147 34.612 194.696 34.2421 196.061 33.4805C196.061 33.4805 194.923 35.7259 191.609 35.3335L191.584 34.5489Z" fill="#B66955"/>
        <path d="M195.259 24.5321C195.167 24.674 194.815 24.6156 194.422 24.5321C194.029 24.4486 193.686 24.3901 193.652 24.2232C193.619 24.0562 194.021 23.8393 194.539 23.9395C195.058 24.0397 195.351 24.3735 195.259 24.5321Z" fill="#1A2E35"/>
        <path d="M190.699 23.8411C190.699 24.0081 190.297 24.0666 189.862 24.0916C189.427 24.1166 189.025 24.0916 189.025 23.9163C189.025 23.7411 189.343 23.5073 189.862 23.4823C190.381 23.4572 190.741 23.6992 190.699 23.8411Z" fill="#1A2E35"/>
        <path d="M192.046 30.2742C191.998 30.2625 191.948 30.2669 191.902 30.2865C191.857 30.3061 191.819 30.3399 191.795 30.3829C191.767 30.4358 191.757 30.4966 191.768 30.5557C191.779 30.6147 191.809 30.6685 191.854 30.7083C191.902 30.7449 191.96 30.7648 192.021 30.7648C192.081 30.7648 192.14 30.7449 192.188 30.7083C192.232 30.668 192.263 30.6149 192.275 30.5565C192.287 30.498 192.28 30.4373 192.255 30.3829C192.225 30.3328 192.179 30.2937 192.125 30.2712C192.071 30.2487 192.011 30.244 191.954 30.2577" fill="#B66955"/>
        <path d="M192.155 30.3173C192.155 30.3173 192.079 30.1838 191.879 30.2339C191.82 30.2478 191.766 30.2778 191.723 30.3205C191.68 30.3633 191.65 30.4172 191.636 30.476C191.613 30.5509 191.614 30.6309 191.638 30.7055C191.662 30.7801 191.708 30.8457 191.77 30.8934C191.836 30.9368 191.913 30.9598 191.992 30.9598C192.071 30.9598 192.148 30.9368 192.213 30.8934C192.265 30.8576 192.304 30.8078 192.328 30.7501C192.352 30.6924 192.359 30.6291 192.347 30.5677C192.347 30.359 192.155 30.3256 192.155 30.359C192.155 30.3924 192.205 30.4509 192.197 30.5761C192.192 30.6076 192.179 30.6374 192.16 30.6629C192.141 30.6883 192.116 30.7085 192.087 30.7218C192.058 30.735 192.025 30.7408 191.993 30.7387C191.962 30.7366 191.931 30.7265 191.904 30.7095C191.875 30.6874 191.853 30.6578 191.839 30.624C191.826 30.5901 191.822 30.5534 191.828 30.5176C191.836 30.4878 191.85 30.4599 191.868 30.4355C191.887 30.411 191.911 30.3907 191.937 30.3757C192.046 30.3173 192.138 30.3757 192.155 30.3173Z" fill="#1A2E35"/>
        <path d="M197.92 26.9197C197.518 27.8295 196.556 28.5389 196.69 29.5239C196.773 30.1583 197.183 30.751 197.108 31.3937C197.008 32.2284 196.171 32.746 196.054 33.5473C195.911 34.524 196.89 35.2835 197.25 36.1934C197.802 37.5289 197.091 39.0232 197.074 40.4589C197.096 41.5651 197.519 42.6259 198.266 43.4442C199.012 44.2625 200.031 44.7826 201.133 44.9078C201.576 44.9734 202.028 44.9199 202.443 44.7525C202.858 44.5852 203.22 44.3104 203.493 43.9563C203.754 43.267 203.933 42.5499 204.029 41.8194C204.372 40.776 205.368 40.0164 205.577 38.9396C205.962 36.978 203.577 35.3504 203.736 33.3554C203.939 32.5243 204.219 31.7138 204.572 30.9345C204.715 30.3926 204.726 29.8248 204.605 29.2777C204.484 28.7307 204.235 28.2199 203.878 27.7876C203.284 27.0865 202.439 26.6275 201.937 25.8679C201.476 24.9405 201.192 23.9356 201.1 22.9046C200.839 21.6682 200.269 20.5179 199.441 19.5616C198.613 18.6054 197.555 17.8744 196.367 17.4373C195.178 17.0002 193.898 16.8713 192.646 17.0626C191.394 17.2538 190.211 17.7589 189.208 18.5307C189.125 18.865 189.114 19.213 189.176 19.5518C189.238 19.8907 189.372 20.2126 189.568 20.496C189.765 20.7794 190.019 21.0178 190.315 21.1956C190.611 21.3734 190.941 21.4864 191.284 21.5272C193.92 21.9529 195.15 21.4606 195.468 22.5123C195.399 22.9498 195.436 23.3971 195.574 23.8178C195.712 24.2385 195.948 24.6207 196.263 24.9329C197.351 26.1099 198.372 25.8596 197.92 26.9197Z" fill="#1A2E35"/>
        <path d="M202.137 44.7339C202.057 44.7456 201.975 44.7456 201.895 44.7339C201.663 44.6965 201.435 44.635 201.217 44.5502C200.409 44.2451 199.702 43.722 199.175 43.0393C198.813 42.5739 198.53 42.0523 198.338 41.4952C198.11 40.8544 197.991 40.18 197.987 39.5001C197.978 38.7482 198.07 37.9986 198.262 37.2715C198.365 36.8887 198.491 36.5123 198.639 36.1445C198.805 35.7809 198.947 35.4074 199.066 35.0261C199.175 34.6527 199.175 34.2559 199.066 33.8824C198.95 33.514 198.801 33.1564 198.622 32.814C198.44 32.4767 198.286 32.1249 198.162 31.7622C198.046 31.401 198.02 31.0172 198.087 30.6438C198.286 29.9987 198.568 29.3817 198.923 28.8075C199.178 28.2888 199.299 27.715 199.275 27.138C199.255 26.3023 198.961 25.4961 198.438 24.8425C198.231 24.6131 198.01 24.3956 197.777 24.1914C198.049 24.3471 198.292 24.5474 198.497 24.784C199.068 25.4388 199.406 26.2634 199.459 27.1297C199.485 27.7309 199.364 28.3294 199.108 28.8741C198.755 29.4355 198.474 30.0384 198.271 30.6689C198.215 31.3926 198.4 32.1146 198.798 32.7223C198.986 33.074 199.141 33.4428 199.259 33.824C199.372 34.2309 199.372 34.661 199.259 35.0679C199.135 35.4569 198.99 35.8386 198.823 36.2114C198.675 36.5706 198.55 36.9387 198.447 37.3133C198.257 38.0211 198.161 38.7507 198.162 39.4834C198.156 40.7152 198.555 41.915 199.3 42.8975C199.805 43.569 200.481 44.0936 201.258 44.4168C201.811 44.6755 202.137 44.7088 202.137 44.7339Z" fill="#375A64"/>
        <path d="M201.744 25.0667C201.555 25.1196 201.362 25.1505 201.166 25.1586C200.628 25.2132 200.085 25.1991 199.551 25.1168C199.148 25.0553 198.762 24.9144 198.414 24.7023C198.067 24.4902 197.764 24.2111 197.526 23.8815C197.301 23.4678 197.122 23.0312 196.991 22.5792C196.827 22.1232 196.515 21.7354 196.104 21.4776C195.252 21.0415 194.315 20.7991 193.358 20.768C192.551 20.7297 191.768 20.4853 191.083 20.0584C190.622 19.7538 190.291 19.29 190.153 18.7563C190.131 18.6125 190.131 18.4661 190.153 18.3223C190.153 18.2221 190.153 18.1719 190.153 18.1719C190.161 18.363 190.186 18.5532 190.229 18.7396C190.39 19.238 190.721 19.6636 191.166 19.9416C191.841 20.3332 192.603 20.5538 193.384 20.5843C194.371 20.6018 195.34 20.8505 196.212 21.3104C196.658 21.5897 196.997 22.0102 197.175 22.5043C197.3 22.9463 197.471 23.3743 197.685 23.7814C198.135 24.4145 198.818 24.8437 199.585 24.975C200.103 25.0671 200.632 25.1006 201.158 25.0751C201.353 25.0595 201.548 25.0567 201.744 25.0667Z" fill="#375A64"/>
        <path d="M200.774 21.8967C200.628 21.9473 200.476 21.9698 200.322 21.9634C199.893 21.9696 199.469 21.8754 199.084 21.688C198.817 21.5579 198.572 21.3891 198.355 21.1871C198.117 20.9381 197.914 20.6572 197.753 20.3524C197.472 19.6676 196.972 19.0951 196.33 18.7247C195.627 18.493 194.879 18.4273 194.146 18.5328C193.524 18.6214 192.893 18.6214 192.272 18.5328C191.85 18.471 191.453 18.2948 191.125 18.0235C191.035 17.9492 190.956 17.862 190.891 17.7647C190.867 17.7313 190.847 17.6949 190.832 17.6562C190.832 17.6562 190.941 17.7815 191.175 17.9568C191.505 18.196 191.891 18.3454 192.296 18.3907C192.905 18.4692 193.521 18.4692 194.129 18.3907C194.895 18.2629 195.68 18.3291 196.414 18.5829C196.787 18.7539 197.109 19.0219 197.343 19.3591C197.555 19.6595 197.745 19.9746 197.912 20.3023C198.067 20.5844 198.258 20.8455 198.481 21.0787C198.678 21.2781 198.903 21.4468 199.15 21.5794C199.514 21.7674 199.913 21.8783 200.322 21.9051C200.615 21.9051 200.774 21.88 200.774 21.8967Z" fill="#375A64"/>
        <path d="M203.3 43.8884C203.3 43.8884 203.401 43.6297 203.552 43.1539C203.747 42.4733 203.835 41.7664 203.811 41.0588C203.78 40.0149 203.493 38.9945 202.974 38.0871C202.69 37.5779 202.254 37.1187 201.903 36.5595C201.715 36.2749 201.582 35.958 201.51 35.6247C201.45 35.2699 201.478 34.9056 201.594 34.5646C201.875 33.9668 202.107 33.347 202.288 32.7115C202.323 32.1134 202.145 31.5223 201.786 31.0421C201.634 30.7904 201.494 30.5314 201.368 30.2658C201.251 30.0003 201.175 29.719 201.142 29.4311C201.107 28.9354 201.123 28.4374 201.192 27.9453C201.312 27.251 201.249 26.5375 201.008 25.8752C200.897 25.6411 200.737 25.4332 200.539 25.2656H200.589C200.634 25.2885 200.676 25.3165 200.715 25.3492C200.862 25.4825 200.984 25.6408 201.075 25.8167C201.359 26.4851 201.449 27.2199 201.334 27.9369C201.288 28.4199 201.288 28.9063 201.334 29.3893C201.436 29.9325 201.652 30.4475 201.97 30.9C202.134 31.1666 202.277 31.4457 202.397 31.7347C202.52 32.0476 202.56 32.3869 202.514 32.7199C202.34 33.3721 202.105 34.0065 201.811 34.6147C201.708 34.9209 201.682 35.2477 201.736 35.5662C201.801 35.8779 201.923 36.175 202.095 36.4427C202.43 36.9769 202.866 37.4444 203.167 37.9787C203.695 38.9154 203.982 39.9677 204.004 41.042C204.016 41.7621 203.905 42.479 203.677 43.1623C203.585 43.396 203.51 43.5795 203.451 43.6964C203.393 43.8133 203.309 43.8967 203.3 43.8884Z" fill="#375A64"/>
        <path d="M187.384 116.495C187.384 116.495 184.756 91.6208 184.605 82.4305C184.455 73.2402 188.79 64.1666 188.79 64.1666L205.618 63.457C205.618 63.457 208.966 72.781 209.008 76.7042C209.125 84.3169 206.983 91.8379 207.225 97.8729L207.786 116.495" fill="#5865F2"/>
        <path d="M208.313 85.918L208.037 86.1183L207.886 86.2267L207.719 86.3855C207.579 86.5111 207.453 86.651 207.342 86.8028C206.692 87.8207 206.246 88.9545 206.029 90.1417C205.839 90.9604 205.558 91.7554 205.192 92.5122C205.083 92.7173 204.957 92.9128 204.815 93.0965C204.752 93.198 204.679 93.2931 204.598 93.3804L204.338 93.6392C203.974 93.9954 203.545 94.2787 203.074 94.4739C202.129 94.8913 201.066 95.0833 200.096 95.5674C199.097 96.1153 198.33 97.0046 197.937 98.0716C197.46 99.1234 197.175 100.233 196.782 101.268C196.453 102.298 195.845 103.217 195.024 103.923C194.215 104.479 193.253 104.77 192.271 104.758C191.359 104.816 190.522 104.758 189.761 104.9C189.083 104.973 188.435 105.217 187.878 105.609C187.471 105.927 187.166 106.357 186.999 106.845C186.892 107.15 186.872 107.48 186.94 107.796C186.964 107.906 186.995 108.015 187.032 108.122C186.968 108.025 186.922 107.918 186.899 107.804C186.807 107.482 186.807 107.141 186.899 106.82C187.059 106.31 187.368 105.859 187.786 105.526C188.35 105.102 189.017 104.837 189.719 104.758C190.48 104.633 191.334 104.649 192.229 104.591C193.179 104.593 194.106 104.301 194.882 103.756C195.672 103.07 196.252 102.176 196.556 101.177C196.949 100.158 197.233 99.0481 197.719 97.9713C198.137 96.8776 198.936 95.9707 199.97 95.417C200.982 94.9162 202.045 94.7244 202.966 94.3321C203.415 94.1486 203.828 93.8887 204.188 93.564L204.43 93.3135C204.507 93.2283 204.58 93.1393 204.648 93.0465C204.784 92.8676 204.904 92.6776 205.008 92.4788C205.373 91.7391 205.654 90.9608 205.844 90.1584C206.08 88.9628 206.555 87.8271 207.242 86.8195C207.356 86.6676 207.488 86.5301 207.635 86.4103C207.702 86.3519 207.753 86.3019 207.811 86.2601L207.97 86.1517C208.073 86.0583 208.189 85.9796 208.313 85.918Z" fill="#FAFAFA"/>
        <path d="M208.414 74.3984C208.424 74.5095 208.424 74.6212 208.414 74.7322C208.41 75.0528 208.371 75.372 208.297 75.6839C207.955 76.823 207.296 77.842 206.397 78.6222C205.791 79.1681 205.129 79.6493 204.422 80.0579C203.669 80.5003 202.832 80.8925 201.987 81.41C201.082 81.8879 200.239 82.4738 199.476 83.1547C198.7 83.9244 198.063 84.8225 197.593 85.8091C197.101 86.8029 196.542 87.7625 195.92 88.6807C195.322 89.5425 194.516 90.24 193.577 90.709C192.737 91.1176 191.864 91.4527 190.966 91.7106C190.189 91.9274 189.423 92.1837 188.673 92.4785C188.053 92.7228 187.464 93.0366 186.916 93.4135C186.506 93.6987 186.137 94.0385 185.819 94.4235C185.558 94.762 185.337 95.1289 185.158 95.517C185.158 95.517 185.158 95.4084 185.267 95.1997C185.397 94.9026 185.563 94.6224 185.76 94.365C186.07 93.9638 186.437 93.6096 186.849 93.3132C187.399 92.9237 187.991 92.5962 188.614 92.3367C189.3 92.0362 190.087 91.8024 190.916 91.5019C191.802 91.2428 192.664 90.9077 193.493 90.5003C193.934 90.2701 194.346 89.99 194.723 89.6656C195.111 89.325 195.46 88.9412 195.761 88.5219C196.361 87.6035 196.9 86.6471 197.376 85.6589C197.861 84.6564 198.515 83.7445 199.309 82.9627C200.071 82.2745 200.914 81.6802 201.819 81.193C202.656 80.7172 203.493 80.3 204.263 79.8576C204.964 79.4638 205.62 78.9966 206.221 78.4636C207.118 77.7135 207.784 76.7271 208.146 75.6171C208.277 75.2211 208.367 74.8127 208.414 74.3984Z" fill="#FAFAFA"/>
        <path d="M184.689 83.7461C184.687 83.7211 184.687 83.6961 184.689 83.6711C184.689 83.6127 184.639 83.5375 184.614 83.4374C184.547 83.1274 184.561 82.8051 184.656 82.5024C184.868 81.9609 185.2 81.4747 185.628 81.0799C186.055 80.6852 186.567 80.3923 187.125 80.2236C187.819 79.9899 188.606 79.848 189.426 79.631C190.108 79.5239 190.754 79.253 191.308 78.8415C191.862 78.43 192.308 77.8901 192.606 77.2686C192.831 76.8143 193.027 76.3459 193.192 75.8664C193.498 74.8297 193.913 73.828 194.43 72.878C195.016 71.9535 195.902 71.2581 196.941 70.9081C197.897 70.5972 198.872 70.3489 199.861 70.1651C200.731 69.9986 201.575 69.7179 202.372 69.3304C203.05 68.9439 203.636 68.4141 204.087 67.7779C204.759 66.8579 205.14 65.7596 205.183 64.6226C205.185 64.2066 205.157 63.791 205.1 63.3789C205.22 63.7824 205.276 64.2019 205.267 64.6226C205.25 65.7847 204.879 66.9141 204.204 67.8613C203.75 68.5222 203.152 69.0729 202.455 69.4724C201.64 69.8918 200.77 70.1951 199.87 70.3738C198.889 70.5576 197.922 70.8059 196.974 71.1168C195.965 71.4475 195.101 72.1172 194.53 73.0117C194.02 73.949 193.608 74.9365 193.301 75.9583C193.135 76.4469 192.937 76.9238 192.706 77.3856C192.473 77.8286 192.176 78.2361 191.827 78.5959C191.141 79.2157 190.3 79.6395 189.393 79.8229C188.556 80.0316 187.777 80.1651 187.099 80.3905C186.555 80.5442 186.053 80.8185 185.63 81.1928C185.207 81.5672 184.874 82.0319 184.656 82.5525C184.558 82.8424 184.532 83.1519 184.581 83.4541C184.622 83.5495 184.658 83.6469 184.689 83.7461Z" fill="#FAFAFA"/>
        <path d="M206.966 104.781C206.976 104.862 206.976 104.943 206.966 105.023C206.975 105.259 206.952 105.495 206.899 105.725C206.65 106.572 206.13 107.314 205.417 107.836C204.947 108.211 204.425 108.517 203.869 108.746C203.234 109.004 202.586 109.23 201.928 109.422C201.205 109.628 200.497 109.885 199.81 110.19C199.084 110.529 198.43 111.005 197.886 111.593C197.317 112.185 196.832 112.836 196.279 113.412C195.759 113.973 195.151 114.447 194.48 114.815C193.341 115.437 192.063 115.767 190.764 115.775C189.895 115.788 189.031 115.647 188.212 115.357C187.986 115.284 187.767 115.189 187.559 115.073C187.417 115.007 187.342 114.965 187.35 114.957L187.576 115.04C187.792 115.133 188.012 115.214 188.237 115.282C189.252 115.597 190.32 115.703 191.378 115.594C192.435 115.485 193.459 115.163 194.388 114.648C195.041 114.285 195.632 113.82 196.137 113.271C196.673 112.711 197.158 112.06 197.744 111.451C198.303 110.845 198.977 110.357 199.727 110.015C200.422 109.707 201.138 109.447 201.869 109.239C202.564 109.03 203.216 108.838 203.802 108.596C204.35 108.374 204.865 108.079 205.334 107.719C206.031 107.223 206.553 106.519 206.823 105.708C206.904 105.405 206.951 105.094 206.966 104.781Z" fill="#FAFAFA"/>
        <path d="M205.05 53.1302L201.794 53.2054C201.665 53.8603 201.415 54.4857 201.058 55.0501C198.691 50.7792 196.891 46.2196 195.702 41.4858C195.778 41.2271 195.869 40.9516 195.978 40.6511C196.064 40.1776 196.05 39.6914 195.936 39.2238C195.844 38.6645 195.694 37.9049 195.643 37.5543C195.501 36.4775 195.325 36.3105 194.949 36.4274C194.438 36.5943 195.158 39.4407 194.74 39.5074C194.514 39.5074 194.237 38.5643 194.162 37.763C194.087 36.9617 193.719 34.4991 193.451 34.3406C193.183 34.182 192.723 34.4742 192.823 35.2755C192.924 36.0769 193.049 38.4808 192.622 38.5142C192.196 38.5476 191.861 34.4657 191.861 34.4657C191.861 34.4657 191.92 33.5809 191.434 33.631C190.547 33.631 191.242 37.9633 191.317 38.3723C191.367 38.6561 190.907 38.7062 190.865 38.3723C190.823 38.0384 190.614 34.2904 189.71 34.3155C189.016 34.3155 190.246 37.863 189.861 38.6811C189.476 39.4991 189.2 35.9098 188.539 35.9599C188.296 35.9599 188.112 36.0267 188.539 38.055C188.976 39.6693 189.504 41.2577 190.12 42.8129C191.166 48.4473 195.761 66.4608 202.957 63.1636C206.991 61.3189 208.623 53.1469 208.623 53.1469L205.05 53.1302Z" fill="#C78976"/>
        <path d="M191.159 38.6047C191.192 38.6123 191.226 38.6123 191.259 38.6047C191.306 38.5896 191.345 38.5587 191.371 38.5175C191.397 38.4764 191.408 38.4276 191.402 38.3794C191.402 38.1373 191.351 37.7867 191.301 37.3276C191.208 36.775 191.147 36.2177 191.117 35.6581C191.117 35.3326 191.117 34.982 191.117 34.6147C191.12 34.4242 191.139 34.2341 191.176 34.047C191.176 33.8717 191.318 33.6714 191.46 33.6965C191.602 33.6965 191.711 33.7967 191.753 33.9636C191.804 34.134 191.821 34.3125 191.803 34.4894C191.887 35.5809 192.027 36.6676 192.222 37.745C192.222 37.8869 192.289 38.0371 192.33 38.1874C192.372 38.3376 192.381 38.3293 192.414 38.4044C192.433 38.4451 192.456 38.4841 192.481 38.5212C192.499 38.5497 192.524 38.5737 192.553 38.5911C192.582 38.6085 192.614 38.6187 192.648 38.6213C192.704 38.6154 192.757 38.5933 192.8 38.5577C192.843 38.522 192.875 38.4744 192.891 38.4209C192.924 38.3428 192.949 38.2619 192.967 38.179C192.998 38.0222 193.018 37.8631 193.025 37.7032C193.071 37.0557 193.071 36.4057 193.025 35.7582C192.974 35.4353 192.96 35.1077 192.983 34.7816C192.998 34.6391 193.067 34.5077 193.176 34.4144C193.23 34.393 193.289 34.393 193.343 34.4144H193.435C193.456 34.4301 193.473 34.4499 193.485 34.4727C193.605 34.792 193.695 35.1219 193.753 35.4578C193.82 35.8001 193.878 36.1506 193.937 36.5096C193.996 36.8685 194.046 37.2189 194.088 37.5862C194.118 37.9601 194.177 38.3313 194.263 38.6965C194.309 38.8812 194.368 39.0626 194.439 39.2391C194.479 39.3378 194.533 39.4303 194.598 39.5145C194.626 39.549 194.662 39.5758 194.703 39.5919C194.744 39.608 194.789 39.613 194.833 39.6064C194.872 39.5932 194.907 39.57 194.935 39.5393C194.963 39.5086 194.982 39.4715 194.992 39.4311C195.043 39.2323 195.057 39.0257 195.033 38.8218C195.033 38.6298 195.033 38.4377 195.033 38.2457C195.033 37.9201 194.966 37.5947 194.958 37.2775C194.945 37.1191 194.945 36.96 194.958 36.8016C194.97 36.7337 194.987 36.6667 195.008 36.6013C195.008 36.6013 195.008 36.5511 195.05 36.5428H195.109C195.36 36.4343 195.452 36.7933 195.519 37.0855C195.586 37.3776 195.619 37.7031 195.678 38.0119C195.778 38.6213 195.912 39.2308 195.979 39.8234C196.038 40.0985 196.038 40.383 195.979 40.6581L195.703 41.4929V41.5428C196.163 43.4569 196.747 45.339 197.452 47.1772C198.071 48.8466 198.69 50.2825 199.234 51.4511C199.778 52.6197 200.264 53.5379 200.607 54.1556L201.008 54.8485C201.051 54.931 201.102 55.0092 201.159 55.0822C201.128 54.9953 201.089 54.9114 201.042 54.8317L200.665 54.1221C200.347 53.4961 199.879 52.5779 199.352 51.4009C198.824 50.224 198.222 48.78 197.619 47.1189C196.939 45.2849 196.38 43.4083 195.946 41.5012V41.5511L196.222 40.7164C196.304 40.4118 196.321 40.0933 196.272 39.7816C196.196 39.1723 196.071 38.5797 195.971 37.962C195.912 37.6531 195.87 37.3442 195.812 37.027C195.778 36.86 195.724 36.6974 195.653 36.5428C195.609 36.4463 195.53 36.3694 195.433 36.3264C195.336 36.2833 195.227 36.2773 195.125 36.3093H195.059C195.027 36.3177 194.997 36.3349 194.975 36.3592C194.931 36.395 194.897 36.4409 194.874 36.4929C194.842 36.5792 194.82 36.6686 194.807 36.7598C194.795 36.9265 194.795 37.094 194.807 37.2608C194.807 37.5946 194.849 37.9201 194.874 38.2457C194.874 38.4377 194.874 38.6298 194.916 38.8134C194.942 38.9877 194.942 39.1649 194.916 39.3392C194.916 39.3809 194.916 39.3393 194.916 39.3893C194.867 39.3257 194.828 39.2555 194.799 39.1807C194.726 39.0143 194.67 38.8408 194.632 38.663C194.544 38.3094 194.485 37.9493 194.456 37.5862C194.414 37.2189 194.355 36.8602 194.305 36.5012C194.255 36.1423 194.188 35.7833 194.113 35.4411C194.055 35.0833 193.957 34.7332 193.82 34.3977C193.788 34.3428 193.745 34.2944 193.694 34.2557L193.552 34.1974C193.496 34.183 193.437 34.18 193.38 34.1886C193.322 34.1972 193.267 34.2171 193.217 34.2473C193.138 34.3063 193.071 34.3815 193.022 34.4678C192.973 34.5541 192.943 34.6495 192.933 34.7482C192.904 34.9251 192.904 35.1054 192.933 35.2824L192.983 35.7833C193.029 36.4196 193.029 37.0585 192.983 37.6948C192.977 37.8465 192.957 37.9974 192.924 38.1456C192.91 38.2165 192.891 38.2862 192.866 38.3543C192.857 38.3793 192.843 38.4019 192.824 38.4209C192.824 38.4209 192.824 38.421 192.824 38.4711C192.824 38.5211 192.824 38.471 192.824 38.4209C192.824 38.3708 192.824 38.3626 192.782 38.3376C192.75 38.2738 192.725 38.2066 192.707 38.1373C192.707 37.9953 192.632 37.8534 192.598 37.7115C192.395 36.6431 192.247 35.5647 192.155 34.4811C192.169 34.2871 192.149 34.0923 192.096 33.9051C192.068 33.8034 192.013 33.7111 191.937 33.638C191.9 33.6022 191.855 33.5747 191.806 33.5575C191.757 33.5402 191.704 33.5336 191.652 33.5379C191.587 33.5296 191.521 33.5402 191.462 33.5683C191.403 33.5964 191.353 33.6408 191.318 33.6965C191.257 33.79 191.217 33.8953 191.201 34.0054C191.169 34.1988 191.15 34.3939 191.142 34.5897C191.142 34.9653 191.142 35.3159 191.142 35.6414C191.177 36.2017 191.247 36.7592 191.351 37.3109C191.427 37.77 191.477 38.1456 191.494 38.3543C191.502 38.3951 191.496 38.4378 191.476 38.4745C191.456 38.5113 191.424 38.5396 191.385 38.5546L191.159 38.6047Z" fill="#B66955"/>
        <path d="M165.719 58.4901C164.957 58.4742 164.197 58.5613 163.459 58.749C161.442 59.2832 157.953 61.3867 157.811 63.991H160.321C160.321 63.991 158.907 66.9961 159.325 66.7206C160.465 65.8244 161.544 64.854 162.555 63.8158L165.719 58.4901Z" fill="#C78976"/>
        <path d="M200.222 13.215C200.172 13.215 199.938 11.1367 199.712 8.55735C199.486 5.97805 199.343 3.88281 199.402 3.88281C199.46 3.88281 199.686 5.96134 199.912 8.54064C200.138 11.1199 200.281 13.215 200.222 13.215Z" fill="#01007F"/>
        <path d="M211.326 4.00815C211.368 4.00815 209.652 6.51243 207.501 9.53413C205.35 12.5558 203.568 14.9765 203.526 14.9431C203.484 14.9097 205.2 12.4389 207.342 9.41715C209.484 6.39545 211.275 3.97476 211.326 4.00815Z" fill="#01007F"/>
        <path d="M215.936 15.2245C215.936 15.2746 213.953 15.7337 211.476 16.2345C208.999 16.7353 206.991 17.111 206.982 17.0692C206.974 17.0275 208.966 16.5601 211.434 16.0593C213.903 15.5584 215.92 15.1661 215.936 15.2245Z" fill="#01007F"/>
        <path d="M83.0651 68.7712L69.2487 139.614L67.4414 148.888L159.66 148.429C163.803 148.429 167.468 144.748 168.799 139.297L185.159 72.4191C186.163 68.2455 183.945 63.9799 180.807 63.9883L87.4666 64.0884C85.408 64.0633 83.609 65.9833 83.0651 68.7712Z" fill="#39E070"/>
        <g opacity="0.5">
            <path d="M83.0651 68.7712L69.2487 139.614L67.4414 148.888L159.66 148.429C163.803 148.429 167.468 144.748 168.799 139.297L185.159 72.4191C186.163 68.2455 183.945 63.9799 180.807 63.9883L87.4666 64.0884C85.408 64.0633 83.609 65.9833 83.0651 68.7712Z" fill="black"/>
        </g>
        <path d="M150.815 134.792L141.058 56.3277C140.917 54.8239 140.229 53.4234 139.123 52.3913C138.018 51.3593 136.571 50.767 135.057 50.7266L113.643 50.7934C112.848 50.8028 112.064 50.9735 111.337 51.2949C110.611 51.6164 109.957 52.0819 109.417 52.6632L99.2493 63.448L39.7 63.7567C36.0598 63.7567 33.2648 67.2125 33.7502 71.0689L42.8132 143.606C42.9519 145.11 43.6384 146.51 44.7427 147.542C45.8469 148.574 47.2923 149.167 48.8051 149.208L152.573 149.007C164.138 149.241 165.234 145.835 165.234 145.835C152.003 148.74 150.824 134.8 150.815 134.792Z" fill="#39E070"/>
        <path d="M106.068 119.081L102.57 122.829L75.6074 98.6385L79.1138 94.8906L106.068 119.081Z" fill="white"/>
        <path d="M101.098 94.0586L104.973 97.531L80.5791 123.666L76.7129 120.194L101.098 94.0586Z" fill="white"/>
        <path d="M165.636 17.7945C165.509 17.7389 165.401 17.6494 165.323 17.5359C165.244 17.4223 165.199 17.2893 165.192 17.1517L165.042 13.5375C165.036 13.4249 165.057 13.3126 165.102 13.2094C165.147 13.1062 165.216 13.0149 165.303 12.9428C165.39 12.8708 165.493 12.8198 165.603 12.7941C165.713 12.7683 165.827 12.7684 165.937 12.7945C166.239 12.8616 166.552 12.8658 166.855 12.8069C167.159 12.748 167.448 12.6274 167.703 12.4523C167.936 12.3014 168.137 12.1055 168.294 11.8762C168.45 11.6469 168.559 11.3886 168.615 11.1167C168.651 10.8401 168.63 10.5591 168.554 10.2907C168.478 10.0223 168.347 9.77233 168.171 9.55584C167.805 9.07544 167.264 8.75768 166.665 8.67098C166.049 8.63735 165.44 8.81298 164.937 9.16925C164.433 9.52552 164.066 10.0415 163.895 10.6327C163.87 10.7248 163.827 10.8109 163.768 10.8864C163.709 10.9619 163.637 11.0252 163.553 11.0724C163.47 11.1197 163.378 11.1502 163.283 11.1621C163.188 11.174 163.092 11.1671 163 11.1417C162.907 11.1176 162.819 11.0753 162.743 11.017C162.667 10.9588 162.603 10.8859 162.556 10.8026C162.508 10.7194 162.477 10.6273 162.466 10.5322C162.455 10.4371 162.462 10.3406 162.489 10.2485C162.752 9.32252 163.329 8.51594 164.121 7.96526C164.912 7.41457 165.87 7.15375 166.832 7.22693C167.329 7.29454 167.807 7.46081 168.238 7.71602C168.67 7.97123 169.045 8.31022 169.343 8.71276C169.635 9.08942 169.849 9.52031 169.973 9.98033C170.096 10.4404 170.127 10.9203 170.063 11.3922C169.977 11.8615 169.795 12.3083 169.528 12.7046C169.262 13.1009 168.917 13.4384 168.514 13.696C167.929 14.0917 167.246 14.3172 166.539 14.3472L166.665 17.135C166.668 17.2304 166.653 17.3256 166.619 17.415C166.586 17.5044 166.535 17.5863 166.47 17.6561C166.404 17.7259 166.326 17.7821 166.239 17.8216C166.152 17.8611 166.058 17.8831 165.962 17.8864C165.848 17.8783 165.737 17.847 165.636 17.7945Z" fill="#01007F"/>
        <path d="M166.707 19.2751C166.713 19.3916 166.685 19.5075 166.625 19.608C166.566 19.7086 166.478 19.7895 166.372 19.8404C166.267 19.8913 166.149 19.91 166.033 19.8942C165.917 19.8784 165.809 19.8287 165.721 19.7515C165.633 19.6743 165.57 19.5729 165.54 19.4601C165.509 19.3473 165.513 19.2282 165.551 19.1175C165.588 19.0069 165.657 18.9098 165.75 18.8383C165.842 18.7669 165.954 18.7242 166.071 18.7159C166.229 18.7067 166.385 18.7603 166.504 18.865C166.623 18.9697 166.696 19.1171 166.707 19.2751Z" fill="#01007F"/>
        <path d="M153.083 12.6877C153.093 12.6101 153.093 12.5316 153.083 12.4539C153.083 12.287 153.133 12.0532 153.158 11.7611C153.201 11.3821 153.265 11.0059 153.351 10.6343C153.391 10.3978 153.444 10.1636 153.51 9.93305C153.585 9.68264 153.669 9.42387 153.753 9.09833C154.201 7.76892 154.856 6.51825 155.694 5.3922C157.442 3.08642 159.9 1.41529 162.69 0.634313C163.783 0.347118 164.908 0.20122 166.037 0.20024C166.63 0.192227 167.223 0.225592 167.812 0.300301C168.113 0.300301 168.406 0.408775 168.707 0.467205C169.014 0.511795 169.317 0.584451 169.611 0.684242C170.85 1.02327 172.028 1.55584 173.1 2.26199C175.484 3.79787 177.297 6.07003 178.263 8.7311C178.783 10.1539 179.043 11.6576 179.033 13.1717C179.043 14.7352 178.759 16.2869 178.196 17.7462L178.021 18.1967V18.2552V18.3054C179 20.5591 179.962 22.7627 180.891 24.908L181.059 24.716L175.201 22.479H175.125L175.067 22.5291C173.518 24.0292 171.62 25.1219 169.544 25.7093C167.771 26.1998 165.914 26.3084 164.096 26.0278C162.278 25.7471 160.541 25.0837 159 24.0816C157.737 23.2506 156.623 22.2153 155.702 21.0182C154.965 20.0144 154.361 18.9202 153.903 17.7627C153.58 16.8809 153.344 15.9694 153.201 15.0415C153.159 14.6658 153.117 14.3236 153.083 14.0315C153.05 13.7393 153.083 13.489 153.083 13.2887C153.083 13.0883 153.083 12.9464 153.083 12.8295C153.09 12.7769 153.09 12.7236 153.083 12.671C153.08 12.7238 153.08 12.7767 153.083 12.8295C153.083 12.9464 153.083 13.0967 153.083 13.2887V14.0315C153.117 14.332 153.15 14.6742 153.184 15.0582C153.465 17.2562 154.313 19.3441 155.644 21.1183C156.572 22.345 157.704 23.4038 158.991 24.2485C161.48 25.8961 164.46 26.6432 167.434 26.3653C170.408 26.0873 173.196 24.8012 175.335 22.7211H175.201L181.059 24.9665L181.351 25.0832L181.226 24.7828L178.356 18.18V18.297L178.54 17.8462C179.11 16.3513 179.394 14.7628 179.377 13.1633C179.389 11.6149 179.123 10.0769 178.59 8.62248C177.601 5.91169 175.749 3.5986 173.318 2.03659C172.221 1.3199 171.018 0.778975 169.753 0.433784C169.454 0.341761 169.149 0.26946 168.841 0.216951C168.531 0.166867 168.23 0.0832402 167.928 0.0581984C167.329 -0.016292 166.725 -0.0496533 166.121 -0.0418625C164.977 -0.0319873 163.838 0.122311 162.732 0.417277C161.71 0.70838 160.727 1.12029 159.803 1.6443C158.183 2.55273 156.774 3.79295 155.669 5.28358C154.833 6.43279 154.184 7.70602 153.744 9.05655L153.51 9.89128C153.435 10.1417 153.418 10.3838 153.368 10.6009C153.285 10.9749 153.229 11.3541 153.201 11.736C153.201 12.0309 153.184 12.2647 153.15 12.4372C153.083 12.6125 153.083 12.6877 153.083 12.6877Z" fill="#1A2E35"/>
    </g>
    <defs>
        <clipPath id="clip0_343_7179">
            <rect width="235" height="150" fill="white"/>
        </clipPath>
    </defs>
</svg>
